<svg width="1000" height="1000" viewBox="0 0 1000 1000" fill="none" xmlns="http://www.w3.org/2000/svg">
<path d="M904.443 630.943C862.883 759.403 761.825 861.095 633.759 903.523C637.821 896.904 641.411 889.964 644.478 882.747C754.638 841.143 842.125 753.348 883.311 642.982C890.685 639.505 897.747 635.475 904.443 630.943ZM97.0439 635.458C103.595 639.181 110.438 642.451 117.531 645.222C158.758 753.741 244.846 840.162 353.142 881.84C356.163 889.075 359.706 896.039 363.726 902.682C238.352 860.268 139.211 760.945 97.0439 635.458ZM633.445 96.373C761.66 138.74 862.849 240.492 904.443 369.056C897.747 364.524 890.685 360.494 883.311 357.017C842.144 246.705 754.722 158.94 644.636 117.312C641.423 110.027 637.676 103.031 633.445 96.373ZM366.554 96.373C362.323 103.031 358.576 110.027 355.363 117.312C247.595 158.064 161.544 243.03 119.349 350.081C112.22 352.764 105.337 355.948 98.7422 359.589C142.159 235.507 241.503 137.695 366.554 96.373Z" fill="white"/>
<path d="M500 820C676.731 820 820 676.731 820 500C820 323.269 676.731 180 500 180C323.269 180 180 323.269 180 500C180 676.731 323.269 820 500 820Z" stroke="white" stroke-width="3" stroke-linecap="round" stroke-linejoin="round" stroke-dasharray="15 25"/>
<path d="M500 420V310" stroke="white" stroke-width="8" stroke-linecap="round" stroke-linejoin="round"/>
<path d="M500 580V690" stroke="white" stroke-width="8" stroke-linecap="round" stroke-linejoin="round"/>
<path d="M580 500H690" stroke="white" stroke-width="8" stroke-linecap="round" stroke-linejoin="round"/>
<path d="M420 500H310" stroke="white" stroke-width="8" stroke-linecap="round" stroke-linejoin="round"/>
<path d="M500 580C544.183 580 580 544.183 580 500C580 455.817 544.183 420 500 420C455.817 420 420 455.817 420 500C420 544.183 455.817 580 500 580Z" stroke="white" stroke-width="12" stroke-linecap="round" stroke-linejoin="round" stroke-dasharray="20 15"/>
<path d="M500 560C533.137 560 560 533.137 560 500C560 466.863 533.137 440 500 440C466.863 440 440 466.863 440 500C440 533.137 466.863 560 500 560Z" stroke="white" stroke-width="4" stroke-linecap="round" stroke-linejoin="round"/>
<path d="M500 525C513.807 525 525 513.807 525 500C525 486.193 513.807 475 500 475C486.193 475 475 486.193 475 500C475 513.807 486.193 525 500 525Z" stroke="white" stroke-width="8" stroke-linecap="round" stroke-linejoin="round"/>
<path d="M500 508C504.418 508 508 504.418 508 500C508 495.582 504.418 492 500 492C495.582 492 492 495.582 492 500C492 504.418 495.582 508 500 508Z" fill="white"/>
<path d="M500 310C571.797 310 630 251.797 630 180C630 108.203 571.797 50 500 50C428.203 50 370 108.203 370 180C370 251.797 428.203 310 500 310Z" stroke="white" stroke-width="5" stroke-linecap="round" stroke-linejoin="round"/>
<path d="M500 295C563.513 295 615 243.513 615 180C615 116.487 563.513 65 500 65C436.487 65 385 116.487 385 180C385 243.513 436.487 295 500 295Z" stroke="white" stroke-width="2" stroke-linecap="round" stroke-linejoin="round" stroke-dasharray="6 6"/>
<path d="M500 270C549.706 270 590 229.706 590 180C590 130.294 549.706 90 500 90C450.294 90 410 130.294 410 180C410 229.706 450.294 270 500 270Z" stroke="white" stroke-width="14" stroke-linecap="round" stroke-linejoin="round"/>
<path d="M370 180H630" stroke="white" stroke-width="6" stroke-linecap="round" stroke-linejoin="round"/>
<path d="M500 180C500 182.652 498.946 185.196 497.071 187.071C495.196 188.946 492.652 190 490 190C487.348 190 484.804 188.946 482.929 187.071C481.054 185.196 480 182.652 480 180C480 185.304 482.107 190.391 485.858 194.142C489.609 197.893 494.696 200 500 200C505.304 200 510.391 197.893 514.142 194.142C517.893 190.391 520 185.304 520 180C520 187.956 516.839 195.587 511.213 201.213C505.587 206.839 497.956 210 490 210C482.044 210 474.413 206.839 468.787 201.213C463.161 195.587 460 187.956 460 180C460 190.609 464.214 200.783 471.716 208.284C479.217 215.786 489.391 220 500 220C510.609 220 520.783 215.786 528.284 208.284C535.786 200.783 540 190.609 540 180C540 193.261 534.732 205.979 525.355 215.355C515.979 224.732 503.261 230 490 230C476.739 230 464.021 224.732 454.645 215.355C445.268 205.979 440 193.261 440 180C440 195.913 446.321 211.174 457.574 222.426C468.826 233.679 484.087 240 500 240C515.913 240 531.174 233.679 542.426 222.426C553.679 211.174 560 195.913 560 180" stroke="white" stroke-width="3" stroke-linecap="round" stroke-linejoin="round"/>
<path d="M500 190C505.523 190 510 185.523 510 180C510 174.477 505.523 170 500 170C494.477 170 490 174.477 490 180C490 185.523 494.477 190 500 190Z" fill="white"/>
<path d="M500 950C571.797 950 630 891.797 630 820C630 748.203 571.797 690 500 690C428.203 690 370 748.203 370 820C370 891.797 428.203 950 500 950Z" stroke="white" stroke-width="3" stroke-linecap="round" stroke-linejoin="round" stroke-dasharray="30 10"/>
<path d="M488.029 852.889C547.712 874.612 601.454 877.496 608.065 859.332C614.676 841.168 571.653 808.833 511.971 787.111C452.288 765.388 398.547 762.503 391.936 780.668C385.324 798.832 428.347 831.166 488.029 852.889Z" stroke="white" stroke-width="6" stroke-linecap="round" stroke-linejoin="round"/>
<path d="M522.497 846.812C571.151 805.987 600.52 760.887 588.095 746.08C575.67 731.272 526.156 752.364 477.502 793.189C428.849 834.014 399.48 879.113 411.905 893.921C424.33 908.729 473.844 887.637 522.497 846.812Z" stroke="white" stroke-width="6" stroke-linecap="round" stroke-linejoin="round"/>
<path d="M465.532 826.077C476.56 888.625 500.933 936.609 519.969 933.252C539.006 929.896 545.497 876.47 534.468 813.922C523.439 751.374 499.067 703.39 480.03 706.747C460.994 710.103 454.503 763.529 465.532 826.077Z" stroke="white" stroke-width="6" stroke-linecap="round" stroke-linejoin="round"/>
<path d="M500 850C516.569 850 530 836.569 530 820C530 803.431 516.569 790 500 790C483.431 790 470 803.431 470 820C470 836.569 483.431 850 500 850Z" stroke="white" stroke-width="5" stroke-linecap="round" stroke-linejoin="round"/>
<path d="M500 835C508.284 835 515 828.284 515 820C515 811.716 508.284 805 500 805C491.716 805 485 811.716 485 820C485 828.284 491.716 835 500 835Z" stroke="white" stroke-width="2" stroke-linecap="round" stroke-linejoin="round"/>
<path d="M500 826C503.314 826 506 823.314 506 820C506 816.686 503.314 814 500 814C496.686 814 494 816.686 494 820C494 823.314 496.686 826 500 826Z" fill="white"/>
<path d="M874 370L950 446V554L874 630H766L690 554V446L766 370H874Z" stroke="white" stroke-width="6" stroke-linecap="round" stroke-linejoin="round"/>
<path d="M820 400L906 450V550L820 600L734 550V450L820 400Z" stroke="white" stroke-width="3" stroke-linecap="round" stroke-linejoin="round"/>
<path d="M820 425L885 537H755L820 425Z" stroke="white" stroke-width="5" stroke-linecap="round" stroke-linejoin="round"/>
<path d="M820 545C844.853 545 865 524.853 865 500C865 475.147 844.853 455 820 455C795.147 455 775 475.147 775 500C775 524.853 795.147 545 820 545Z" stroke="white" stroke-width="10" stroke-linecap="round" stroke-linejoin="round" stroke-dasharray="15 20"/>
<path d="M820 488L830 506H810L820 488Z" fill="white"/>
<path d="M180 620C246.274 620 300 566.274 300 500C300 433.726 246.274 380 180 380C113.726 380 60 433.726 60 500C60 566.274 113.726 620 180 620Z" stroke="white" stroke-width="22" stroke-linecap="round" stroke-linejoin="round" stroke-dasharray="25 18"/>
<path d="M180 600C235.228 600 280 555.228 280 500C280 444.772 235.228 400 180 400C124.772 400 80 444.772 80 500C80 555.228 124.772 600 180 600Z" stroke="white" stroke-width="4" stroke-linecap="round" stroke-linejoin="round"/>
<path d="M100 420L260 580" stroke="white" stroke-width="16" stroke-linecap="round" stroke-linejoin="round"/>
<path d="M100 580L260 420" stroke="white" stroke-width="16" stroke-linecap="round" stroke-linejoin="round"/>
<path d="M180 565C215.899 565 245 535.899 245 500C245 464.101 215.899 435 180 435C144.101 435 115 464.101 115 500C115 535.899 144.101 565 180 565Z" stroke="white" stroke-width="6" stroke-linecap="round" stroke-linejoin="round"/>
<path d="M115 440C117.761 440 120 437.761 120 435C120 432.239 117.761 430 115 430C112.239 430 110 432.239 110 435C110 437.761 112.239 440 115 440Z" fill="white"/>
<path d="M245 570C247.761 570 250 567.761 250 565C250 562.239 247.761 560 245 560C242.239 560 240 562.239 240 565C240 567.761 242.239 570 245 570Z" fill="white"/>
<path d="M115 570C117.761 570 120 567.761 120 565C120 562.239 117.761 560 115 560C112.239 560 110 562.239 110 565C110 567.761 112.239 570 115 570Z" fill="white"/>
<path d="M245 440C247.761 440 250 437.761 250 435C250 432.239 247.761 430 245 430C242.239 430 240 432.239 240 435C240 437.761 242.239 440 245 440Z" fill="white"/>
<path d="M180 518C189.941 518 198 509.941 198 500C198 490.059 189.941 482 180 482C170.059 482 162 490.059 162 500C162 509.941 170.059 518 180 518Z" stroke="white" stroke-width="5" stroke-linecap="round" stroke-linejoin="round"/>
<path d="M180 506C183.314 506 186 503.314 186 500C186 496.686 183.314 494 180 494C176.686 494 174 496.686 174 500C174 503.314 176.686 506 180 506Z" fill="white"/>
</svg>
